<?xml version="1.0" encoding="utf-8"?>
<!-- Generator: Adobe Illustrator 26.5.0, SVG Export Plug-In . SVG Version: 6.00 Build 0)  -->
<svg version="1.1" id="Layer_1" xmlns="http://www.w3.org/2000/svg" xmlns:xlink="http://www.w3.org/1999/xlink" x="0px" y="0px"
	 viewBox="0 0 1951.64 410.4" style="enable-background:new 0 0 1951.64 410.4;" xml:space="preserve">
<style type="text/css">
	.st0{fill:none;stroke:#F5C09A;stroke-width:6;stroke-linecap:round;stroke-linejoin:round;stroke-miterlimit:10;}
	.st1{fill:#F5C09A;stroke:#F5C09A;stroke-width:3.4172;stroke-miterlimit:10;}
	.st2{enable-background:new    ;}
	.st3{fill:#FFFFFF;}
</style>
<g id="Layer_3">
</g>
<g id="Layer_1_00000052788087530948806660000008159894202552176001_">
	<g>
		<circle class="st0" cx="235.47" cy="205.2" r="132.35"/>
		<line class="st0" x1="235.47" y1="243.49" x2="235.47" y2="337.55"/>
		<line class="st0" x1="235.47" y1="72.85" x2="235.47" y2="100.73"/>
		<g>
			<polyline class="st0" points="235.47,243.49 145.28,172.11 235.47,100.73 325.66,172.11 285.38,203.99 			"/>
			<polyline class="st0" points="311.8,249.75 325.66,238.78 325.66,172.11 			"/>
			<polyline class="st0" points="145.28,172.11 145.28,238.78 235.47,310.17 276.15,277.96 			"/>
		</g>
		<g>
			<polyline class="st0" points="161.1,251.3 145.71,277.96 194.79,277.96 			"/>
			<polyline class="st0" points="235.47,277.96 325.23,277.96 235.47,122.5 188.55,203.76 			"/>
		</g>
	</g>
	<g>
		<path class="st1" d="M484.02,254.2c-0.44-0.96-1.04-2.35-1.83-4.18c-0.78-1.83-1.68-3.93-2.68-6.33c-1-2.39-2.09-5-3.26-7.83
			s-2.37-5.76-3.59-8.81h-33.4l-11.22,27.14h-14.09l42.15-99.04c0.52,1.22,1.46,3.44,2.81,6.65c1.35,3.22,2.96,7.07,4.83,11.55
			s3.96,9.44,6.26,14.88c2.3,5.44,4.65,10.94,7.05,16.51c2.39,5.57,4.74,11.05,7.05,16.44c2.3,5.4,4.41,10.35,6.33,14.88
			c1.91,4.52,3.54,8.37,4.89,11.55c1.35,3.18,2.28,5.37,2.81,6.59H484.02z M444.22,215.05h23.62c-1.22-2.87-2.37-5.63-3.46-8.29
			c-1.09-2.65-2.09-5.09-3-7.31s-1.72-4.15-2.41-5.81c-0.7-1.65-1.22-2.96-1.57-3.92c-0.09-0.17-0.28-0.78-0.59-1.83
			c-0.31-1.04-0.54-2-0.72-2.87c-0.18,0.87-0.44,1.83-0.78,2.87c-0.35,1.04-0.57,1.65-0.65,1.83L444.22,215.05z"/>
		<path class="st1" d="M534.65,254.2v-94.6H549v81.03h46.98v13.57L534.65,254.2L534.65,254.2z"/>
		<path class="st1" d="M701.41,247.41c-1.04,0.78-2.5,1.63-4.37,2.54c-1.87,0.91-4.07,1.76-6.59,2.54s-5.33,1.44-8.42,1.96
			c-3.09,0.52-6.37,0.78-9.85,0.78c-7.4,0-14.03-1.28-19.9-3.85c-5.87-2.56-10.85-6.02-14.94-10.37c-4.09-4.35-7.22-9.39-9.39-15.14
			c-2.18-5.74-3.26-11.83-3.26-18.27c0-7.13,1.28-13.7,3.85-19.7c2.56-6,6.07-11.18,10.5-15.53c4.44-4.35,9.63-7.74,15.59-10.18
			c5.96-2.43,12.29-3.65,18.99-3.65c2.52,0,5.09,0.17,7.7,0.52s5.07,0.83,7.37,1.44s4.35,1.33,6.13,2.15
			c1.78,0.83,3.15,1.68,4.11,2.54c-0.7,1.04-1.24,1.91-1.63,2.61s-0.8,1.42-1.24,2.15c-0.44,0.74-0.91,1.59-1.44,2.54
			c-0.52,0.96-1.22,2.22-2.09,3.78c-1.13-0.78-2.46-1.44-3.98-1.96c-1.52-0.52-3.11-0.96-4.76-1.3c-1.65-0.35-3.33-0.61-5.02-0.78
			c-1.7-0.17-3.24-0.26-4.63-0.26c-5.05,0-9.72,0.94-14.03,2.81c-4.31,1.87-8.03,4.39-11.16,7.57c-3.13,3.18-5.59,6.85-7.37,11.03
			c-1.78,4.18-2.67,8.53-2.67,13.05c0,4.44,0.85,8.7,2.54,12.79c1.7,4.09,4.04,7.74,7.05,10.96c3,3.22,6.61,5.79,10.83,7.7
			c4.22,1.91,8.85,2.87,13.9,2.87c2.7,0,5.3-0.26,7.83-0.78c2.52-0.52,4.81-1.13,6.85-1.83s3.74-1.39,5.09-2.09
			c1.35-0.7,2.15-1.22,2.41-1.57L701.41,247.41z"/>
		<path class="st1" d="M739.25,254.2v-94.6h14.22v40.19h47.37V159.6h14.35c0,1.13,0,3.24,0,6.33s0,6.77,0,11.03s0,8.98,0,14.16
			c0,5.18-0.02,10.44-0.07,15.79c-0.04,5.35-0.07,10.61-0.07,15.79s0,9.9,0,14.16c0,4.26,0,7.94,0,11.03s0,5.2,0,6.33h-14.22v-40.84
			h-47.37v40.84h-14.21V254.2z"/>
		<path class="st1" d="M863.21,254.2v-94.6h62.11v12.92h-47.76v27.66h42.54v13.18h-42.54v27.66h49.59v13.18L863.21,254.2
			L863.21,254.2z"/>
		<path class="st1" d="M968.51,155.42c0.78,1.22,2.41,3.55,4.89,6.98c2.48,3.44,5.35,7.42,8.61,11.94s6.72,9.33,10.37,14.42
			s7.09,9.87,10.31,14.35c3.22,4.48,6.02,8.37,8.42,11.68c2.39,3.31,3.98,5.48,4.76,6.52c0.26-0.43,1.09-1.61,2.48-3.52
			c1.39-1.91,3.11-4.31,5.15-7.18s4.37-6.11,6.98-9.72s5.29-7.31,8.03-11.09s5.44-7.55,8.09-11.29c2.65-3.74,5.11-7.15,7.37-10.24
			c2.26-3.09,4.2-5.79,5.81-8.09c1.61-2.3,2.76-3.89,3.46-4.76v98.78h-15.14v-52.98c0-0.7,0.07-1.44,0.2-2.22s0.2-1.35,0.2-1.7
			c-0.78,1.04-2.02,2.81-3.72,5.29s-3.65,5.31-5.87,8.48c-2.22,3.18-4.55,6.52-6.98,10.05c-2.44,3.52-4.74,6.85-6.92,9.98
			c-2.17,3.13-4.09,5.89-5.74,8.29c-1.65,2.39-2.79,4.07-3.39,5.02c-0.61-0.78-1.81-2.41-3.59-4.89s-3.87-5.37-6.26-8.68
			c-2.39-3.3-4.92-6.83-7.57-10.57c-2.66-3.74-5.11-7.22-7.37-10.44s-4.22-5.98-5.87-8.29c-1.65-2.3-2.61-3.72-2.87-4.24
			c0,0.35,0.07,0.91,0.2,1.7c0.13,0.78,0.2,1.52,0.2,2.22v52.98h-14.22v-98.78H968.51z"/>
		<path class="st1" d="M1111.27,159.6h14.22v94.6h-14.22V159.6z"/>
		<path class="st1" d="M1193.73,205.79l-29.62-46.19h17.49c0.43,0.7,1.17,1.87,2.22,3.52c1.04,1.65,2.22,3.54,3.52,5.68
			c1.3,2.13,2.7,4.39,4.18,6.79c1.48,2.39,2.87,4.66,4.17,6.79c1.31,2.13,2.46,4.03,3.46,5.68s1.72,2.83,2.15,3.52
			c0.09,0.17,0.39,0.76,0.91,1.76s0.91,1.89,1.17,2.67c0.26-0.78,0.65-1.67,1.17-2.67s0.83-1.59,0.91-1.76
			c0.43-0.7,1.15-1.87,2.15-3.52c1-1.65,2.13-3.54,3.39-5.68c1.26-2.13,2.59-4.39,3.98-6.79c1.39-2.39,2.72-4.65,3.98-6.79
			c1.26-2.13,2.39-4.02,3.39-5.68c1-1.65,1.72-2.83,2.15-3.52h17.49c-0.52,0.78-1.52,2.37-3,4.76s-3.24,5.2-5.28,8.42
			c-2.05,3.22-4.2,6.66-6.46,10.31s-4.42,7.09-6.46,10.31c-2.04,3.22-3.83,6.03-5.35,8.42s-2.5,3.98-2.94,4.76l30.8,47.63h-17.75
			l-19.31-31.06c-0.18-0.26-0.44-0.65-0.78-1.17c-0.35-0.52-0.7-1.11-1.04-1.76c-0.35-0.65-0.7-1.28-1.04-1.89
			c-0.35-0.61-0.61-1.09-0.78-1.44c-0.26,0.78-0.61,1.61-1.04,2.48c-0.44,0.87-0.7,1.35-0.78,1.43c-0.7,1.13-2.02,3.29-3.98,6.46
			c-1.96,3.18-4,6.59-6.13,10.24c-2.13,3.65-4.18,7.07-6.13,10.24c-1.96,3.18-3.28,5.33-3.98,6.46h-17.75L1193.73,205.79z"/>
	</g>
	<g class="st2">
		<path class="st3" d="M1389.68,174.4c-3.46-1.82-7.2-3.37-11.21-4.65c-4.01-1.27-7.88-1.91-11.62-1.91c-5.19,0-9.29,1.16-12.3,3.49
			c-3.01,2.32-4.51,5.54-4.51,9.64c0,2.83,1,5.29,3.01,7.38c2,2.1,4.6,3.92,7.79,5.47c3.19,1.55,6.56,3.01,10.12,4.37
			c4.1,1.46,8.06,3.3,11.89,5.54c3.83,2.23,6.97,5.22,9.43,8.95c2.46,3.74,3.69,8.75,3.69,15.04c0,5.19-1.32,9.93-3.96,14.21
			c-2.64,4.28-6.4,7.68-11.28,10.18c-4.88,2.51-10.73,3.76-17.56,3.76c-6.38,0-12.42-1.03-18.11-3.08
			c-5.7-2.05-10.59-4.49-14.69-7.31l6.42-11.34c3.19,2.46,7.11,4.6,11.75,6.42c4.65,1.82,9.07,2.73,13.26,2.73
			c3.1,0,6.1-0.52,9.02-1.57c2.92-1.05,5.35-2.71,7.31-4.99c1.96-2.28,2.94-5.28,2.94-9.02c0-3.1-0.87-5.74-2.6-7.93
			c-1.73-2.19-3.99-4.05-6.77-5.6c-2.78-1.55-5.76-2.92-8.95-4.1c-3.1-1.18-6.27-2.48-9.5-3.9c-3.24-1.41-6.2-3.16-8.88-5.26
			c-2.69-2.09-4.88-4.67-6.56-7.72c-1.69-3.05-2.53-6.77-2.53-11.14c0-5.38,1.25-10.02,3.76-13.94c2.5-3.92,5.99-7.02,10.46-9.29
			c4.46-2.28,9.57-3.51,15.31-3.69c6.56,0,12.3,0.8,17.22,2.39c4.92,1.6,9.25,3.53,12.98,5.81L1389.68,174.4z"/>
		<path class="st3" d="M1434.78,155.67h66.02v13.8h-26.24v85.29h-14.35v-85.29h-25.42V155.67z"/>
		<path class="st3" d="M1599.9,254.77h16.54l-43.6-103.2h-0.82l-43.6,103.2h14.21l10.18-24.88h37.32L1599.9,254.77z M1557.84,217.59
			l14.02-34.24l13.44,34.24H1557.84z"/>
		<path class="st3" d="M1644.18,155.67h66.02v13.8h-26.24v85.29h-14.35v-85.29h-25.42V155.67z"/>
		<path class="st3" d="M1807.38,174.4c-3.46-1.82-7.2-3.37-11.21-4.65c-4.01-1.27-7.88-1.91-11.62-1.91c-5.19,0-9.29,1.16-12.3,3.49
			c-3.01,2.32-4.51,5.54-4.51,9.64c0,2.83,1,5.29,3.01,7.38c2,2.1,4.6,3.92,7.79,5.47c3.19,1.55,6.56,3.01,10.11,4.37
			c4.1,1.46,8.06,3.3,11.89,5.54c3.83,2.23,6.97,5.22,9.43,8.95c2.46,3.74,3.69,8.75,3.69,15.04c0,5.19-1.32,9.93-3.96,14.21
			c-2.64,4.28-6.4,7.68-11.28,10.18c-4.88,2.51-10.73,3.76-17.56,3.76c-6.38,0-12.42-1.03-18.11-3.08
			c-5.7-2.05-10.59-4.49-14.69-7.31l6.42-11.34c3.19,2.46,7.11,4.6,11.75,6.42c4.65,1.82,9.07,2.73,13.26,2.73
			c3.1,0,6.1-0.52,9.02-1.57c2.92-1.05,5.35-2.71,7.31-4.99c1.96-2.28,2.94-5.28,2.94-9.02c0-3.1-0.87-5.74-2.6-7.93
			c-1.73-2.19-3.99-4.05-6.77-5.6c-2.78-1.55-5.76-2.92-8.95-4.1c-3.1-1.18-6.27-2.48-9.5-3.9c-3.24-1.41-6.2-3.16-8.88-5.26
			c-2.69-2.09-4.88-4.67-6.56-7.72c-1.69-3.05-2.53-6.77-2.53-11.14c0-5.38,1.25-10.02,3.76-13.94c2.51-3.92,5.99-7.02,10.46-9.29
			c4.46-2.28,9.57-3.51,15.31-3.69c6.56,0,12.3,0.8,17.22,2.39c4.92,1.6,9.25,3.53,12.99,5.81L1807.38,174.4z"/>
	</g>
</g>
<g id="Layer_2_00000017492251805844572320000008752611838450886329_">
</g>
</svg>
