<?xml version="1.0" encoding="utf-8"?>
<!-- Generator: Adobe Illustrator 26.5.0, SVG Export Plug-In . SVG Version: 6.00 Build 0)  -->
<svg version="1.1" id="Layer_1" xmlns="http://www.w3.org/2000/svg" xmlns:xlink="http://www.w3.org/1999/xlink" x="0px" y="0px"
	 viewBox="0 0 320 320" style="enable-background:new 0 0 320 320;" xml:space="preserve">
<style type="text/css">
	.st0{fill:none;stroke:#F5C09A;stroke-width:4.1485;stroke-linecap:round;stroke-linejoin:round;stroke-miterlimit:10;}
	.st1{fill:none;stroke:#F5C09A;stroke-width:2.4199;stroke-linecap:round;stroke-linejoin:round;stroke-miterlimit:10;}
	.st2{clip-path:url(#SVGID_00000036247888782592811050000003127557771203386779_);}
	.st3{fill:#F5C09A;stroke:#F5C09A;stroke-width:1.7285;stroke-miterlimit:10;}
	.st4{fill:none;stroke:#F5C09A;stroke-width:6.9229;stroke-linecap:round;stroke-linejoin:round;stroke-miterlimit:10;}
</style>
<g>
	<line class="st0" x1="160" y1="50.4" x2="160" y2="61.51"/>
	<path class="st1" d="M124.07,115.13"/>
	<circle class="st0" cx="160" cy="103.13" r="52.73"/>
	<line class="st0" x1="160" y1="144.95" x2="160" y2="155.86"/>
	<g>
		<polyline class="st1" points="144.48,73.79 160,61.51 195.93,89.95 		"/>
		<line class="st1" x1="124.07" y1="89.95" x2="144.48" y2="73.79"/>
		<line class="st1" x1="195.93" y1="116.51" x2="195.93" y2="89.95"/>
		<polyline class="st1" points="124.07,89.95 124.07,116.51 160,144.95 195.93,116.51 		"/>
	</g>
	<g>
		<defs>
			<polygon id="SVGID_1_" points="195.93,89.95 160,61.51 124.81,90.26 124.07,116.51 160,144.95 195.93,116.51 			"/>
		</defs>
		<clipPath id="SVGID_00000086692612967016948270000015876655607900026258_">
			<use xlink:href="#SVGID_1_"  style="overflow:visible;"/>
		</clipPath>
		<g style="clip-path:url(#SVGID_00000086692612967016948270000015876655607900026258_);">
			<path class="st3" d="M163.07,82.68c-0.44,1.24,0.37,1.89,1.7,2.32c0.9,0.29,1.76,0.73,2.59,1.19c2.39,1.33,3.69,3.48,4.4,6.04
				c0.14,0.51,0.03,1.01-0.06,1.51c-0.09,0.48-0.45,0.69-0.9,0.76c-1.12,0.17-2.25,0.2-3.38,0.18c-0.55-0.01-0.98-0.25-1.3-0.68
				c-0.23-0.3-0.44-0.61-0.64-0.93c-1.94-3.04-4.66-4.16-8.2-3.41c-3.4,0.72-4.14,2.82-3.85,5.91c0.1,1.02,0.96,1.56,1.8,1.98
				c1.25,0.63,2.6,0.96,3.98,1.23c2.73,0.53,5.46,1.07,8.11,1.97c4.69,1.59,6.11,5.86,5.94,9.35c-0.11,2.33-0.79,4.52-2.34,6.29
				c-1.87,2.13-4.18,3.67-6.98,4.33c-0.48,0.11-0.64,0.39-0.72,0.82c-0.23,1.16-0.04,2.34-0.23,3.51c-0.24,1.5-0.36,1.69-1.86,1.95
				c-1.14,0.2-2.29,0.15-3.43-0.09c-0.72-0.15-1.1-0.56-1.24-1.28c-0.23-1.2-0.24-2.42-0.23-3.64c0-1.04,0-1.06-0.98-1.3
				c-2.08-0.51-4.05-1.26-5.71-2.68c-2.12-1.82-3.37-4.12-3.86-6.85c-0.16-0.87,0.07-1.36,0.88-1.7c1.42-0.59,2.88-0.6,4.36-0.22
				c0.32,0.08,0.52,0.32,0.72,0.56c0.55,0.67,0.94,1.44,1.29,2.23c1.01,2.28,2.8,3.39,5.25,3.5c1.42,0.07,2.83,0.07,4.23-0.23
				c2.18-0.47,3.69-2.1,4.01-4.31c0.09-0.6,0.12-1.19,0-1.78c-0.19-0.91-0.61-1.67-1.46-2.11c-2.09-1.1-4.28-1.82-6.65-2.1
				c-2.92-0.35-5.73-1.23-8.22-2.81c-2.1-1.33-3.14-3.47-3.46-5.88c-0.71-5.33,2.41-10,7.58-11.49c0.67-0.19,1.6-0.12,1.93-0.68
				c0.3-0.51,0.08-1.33,0.09-2.02c0.01-0.93,0.08-1.85,0.3-2.76c0.14-0.56,0.47-0.89,1.01-1.01c1.42-0.31,2.85-0.3,4.28,0
				c0.55,0.12,0.87,0.46,1.01,1.02C163.06,80.36,163.12,81.37,163.07,82.68z"/>
			<path class="st3" d="M150.84,70.6c0.14,1.53-0.55,2.61-1.85,3.32c-1.57,0.86-3.22,1.59-4.72,2.56
				c-8.02,5.18-13.38,12.26-14.6,21.88c-1.48,11.66,2.61,21.17,11.81,28.49c1.85,1.47,3.9,2.59,5.98,3.67
				c0.63,0.32,1.21,0.74,1.82,1.09c0.95,0.53,1.41,1.32,1.5,2.41c0.06,0.78,0.05,1.55-0.1,2.31c-0.23,1.17-1.03,1.68-2.19,1.42
				c-1.85-0.42-3.58-1.16-5.23-2.05c-10.07-5.43-16.69-13.61-19.53-24.74c-0.93-3.64-0.85-7.37-0.69-11.09
				c0.13-3.18,0.61-6.29,1.77-9.27c2.58-6.62,6.37-12.4,11.98-16.82c3.31-2.6,7.08-4.51,10.96-6.15c0.22-0.09,0.46-0.16,0.69-0.22
				c0.95-0.25,1.64,0.08,2.04,0.99C150.8,69.1,150.84,69.85,150.84,70.6z"/>
			<path class="st3" d="M196.75,103.55c0.08,16.22-10.78,27.97-20.74,32.7c-1.52,0.72-3.06,1.4-4.69,1.81
				c-1.34,0.34-2.05-0.13-2.35-1.49c-0.18-0.81-0.14-1.63-0.06-2.44c0.09-0.86,0.49-1.52,1.24-2.01c1.08-0.7,2.2-1.31,3.33-1.92
				c5.56-3.04,10.06-7.22,13.23-12.71c2.36-4.08,3.11-8.93,3.24-13.66c0.17-6.07-0.82-11.45-4.03-16.61
				c-3.15-5.06-7.45-8.95-12.79-11.65c-0.87-0.44-1.69-0.96-2.53-1.45c-1.73-1-1.93-2.26-1.67-4.28c0.04-0.32,0.17-0.64,0.31-0.94
				c0.53-1.16,1.19-1.45,2.4-1.04c1.64,0.56,3.17,1.36,4.68,2.17c3.64,1.95,7.14,4.09,9.97,7.16c4.87,5.29,8.37,11.32,9.86,18.41
				C196.71,98.18,196.78,100.79,196.75,103.55z"/>
		</g>
		<use xlink:href="#SVGID_1_"  style="overflow:visible;fill:none;stroke:#F5C09A;stroke-width:4.1485;stroke-miterlimit:10;"/>
	</g>
</g>
<circle class="st4" cx="160" cy="160" r="147.85"/>
<path class="st4" d="M237.63,247.57h-21.68c-4,0-7.24-3.24-7.24-7.24v-63.7c0-4,3.24-7.24,7.24-7.24h21.68c4,0,7.24,3.24,7.24,7.24
	v63.7C244.87,244.32,241.63,247.57,237.63,247.57z"/>
<path class="st4" d="M208.71,183.68h-24.45c-0.96,0-1.92,0.16-2.83,0.47c-6.22,2.12-31.41,10.7-31.75,10.7h-27.33
	c-4.86,0-8.79,3.94-8.79,8.79v2.07c0,4.86,3.94,8.79,8.79,8.79h30c4.86,0,8.79,3.94,8.79,8.79v3.27"/>
<path class="st4" d="M208.71,235.06h-12.06l-55.42,17.5c-2.55,0.81-5.32,0.53-7.67-0.75l-70.69-38.74
	c-4.51-2.47-5.95-8.28-3.1-12.56l0,0c2.21-3.33,6.39-4.75,10.17-3.46l49.09,16.81"/>
</svg>
