<?xml version="1.0" encoding="utf-8"?>
<!-- Generator: Adobe Illustrator 26.5.0, SVG Export Plug-In . SVG Version: 6.00 Build 0)  -->
<svg version="1.1" id="Layer_1" xmlns="http://www.w3.org/2000/svg" xmlns:xlink="http://www.w3.org/1999/xlink" x="0px" y="0px"
	 viewBox="0 0 389.34 168.58" style="enable-background:new 0 0 389.34 168.58;" xml:space="preserve">
<style type="text/css">
	.st0{fill:#171B24;}
	.st1{opacity:0.5;}
	.st2{fill:#FFFFFF;}
</style>
<g id="Layer_3">
</g>
<path class="st0" d="M335.33,168.58H54.01c-29.7,0-54-24.3-54-54V54c0-29.7,24.3-54,54-54h281.33c29.7,0,54,24.3,54,54v60.58
	C389.33,144.28,365.02,168.58,335.33,168.58z"/>
<g id="Layer_2_00000156582754772563662470000000415408511661814964_">
</g>
<g class="st1">
	<g>
		<path class="st2" d="M131.01,100.03l-1.01,5.83h-23.33V64.19h22.56l1.01,5.83h-17.2v11.55h14.17v5.83h-14.17v12.62L131.01,100.03
			L131.01,100.03z"/>
		<path class="st2" d="M173.27,93.9h-15.35l-5.12,11.96h-6.91l19.7-43.16l19.64,43.16h-6.84L173.27,93.9z M170.83,88.31l-5.24-12.26
			l-5.3,12.26H170.83z"/>
		<path class="st2" d="M220.89,105.87l-12.56-17.44v17.44h-6.37V64.2h10c9.23,0,14.94,5.54,14.94,13.04
			c0,6.25-4.11,10.95-10.54,12.32l12.32,16.31H220.89z M208.33,85.45h3.16c5.54,0,8.87-3.27,8.87-7.92c0-4.52-3.33-7.74-8.87-7.74
			h-3.16V85.45z"/>
		<path class="st2" d="M282.67,107.65l-29.41-30.06v28.27h-6.37V62.41l29.41,30V64.67l6.37-0.95V107.65z"/>
	</g>
</g>
</svg>
