<?xml version="1.0" encoding="utf-8"?>
<!-- Generator: Adobe Illustrator 26.5.0, SVG Export Plug-In . SVG Version: 6.00 Build 0)  -->
<svg version="1.1" id="Layer_1" xmlns="http://www.w3.org/2000/svg" xmlns:xlink="http://www.w3.org/1999/xlink" x="0px" y="0px"
	 viewBox="0 0 320 320" style="enable-background:new 0 0 320 320;" xml:space="preserve">
<style type="text/css">
	.st0{fill:none;stroke:#F5C09A;stroke-width:6.9229;stroke-linecap:round;stroke-linejoin:round;stroke-miterlimit:10;}
</style>
<circle class="st0" cx="160" cy="160" r="147.85"/>
<line class="st0" x1="158.28" y1="306.8" x2="158.28" y2="121.96"/>
<path class="st0" d="M158.28,161.69c18.69-1.25,26.18-10.75,28.68-23.74C167.65,137.95,158.28,149.45,158.28,161.69z"/>
<path class="st0" d="M158.28,200.02c18.69-1.25,26.18-10.75,28.68-23.74C167.65,176.28,158.28,187.78,158.28,200.02z"/>
<path class="st0" d="M158.28,238.35c18.69-1.25,26.18-10.75,28.68-23.74C167.65,214.62,158.28,226.11,158.28,238.35z"/>
<path class="st0" d="M158.28,161.69c-18.69-1.25-26.18-10.75-28.68-23.74C148.92,137.95,158.28,149.45,158.28,161.69z"/>
<line class="st0" x1="158.28" y1="89.48" x2="158.28" y2="35.02"/>
<path class="st0" d="M158.28,74.75c18.69-1.25,26.18-10.75,28.68-23.74C167.65,51.01,158.28,62.51,158.28,74.75z"/>
<path class="st0" d="M158.28,74.75C139.6,73.49,132.1,64,129.6,51.01C148.92,51.01,158.28,62.51,158.28,74.75z"/>
<path class="st0" d="M158.28,200.02c-18.69-1.25-26.18-10.75-28.68-23.74C148.92,176.28,158.28,187.78,158.28,200.02z"/>
<path class="st0" d="M158.28,238.35c-18.69-1.25-26.18-10.75-28.68-23.74C148.92,214.62,158.28,226.11,158.28,238.35z"/>
<path class="st0" d="M204.66,204.21c-5.16-4.8-5.99-12.59-2.12-18.48c5.49-8.34,8.68-18.32,8.68-29.05
	c0-30.48-25.77-54.95-56.71-52.8c-25.98,1.8-47.06,22.76-49,48.73c-0.78,10.47,1.48,20.36,6,28.87c1.61,3.03,0.51,7.15-2.31,9.1h0
	c-3.54,2.44-8.4,1.21-10.4-2.6c-4.93-9.35-7.72-20-7.72-31.3c0-37.98,31.51-68.61,69.82-67.15c35.45,1.35,64.07,30.69,64.58,66.17
	c0.15,10.22-1.99,19.93-5.93,28.65c-1.39,3.07-1.13,6.64,0.6,9.53l6.78,8.9l-11.74,11.24L204.66,204.21z"/>
<path class="st0" d="M260.79,236.25l-12.41,12.41c-1.31,1.31-3.43,1.31-4.74,0l-29.1-29.1c-1.31-1.31-1.31-3.43,0-4.74l12.41-12.41
	c1.31-1.31,3.43-1.31,4.74,0l29.1,29.1C262.1,232.81,262.1,234.94,260.79,236.25z"/>
</svg>
