<?xml version="1.0" encoding="utf-8"?>
<!-- Generator: Adobe Illustrator 26.5.0, SVG Export Plug-In . SVG Version: 6.00 Build 0)  -->
<svg version="1.1" id="Layer_1" xmlns="http://www.w3.org/2000/svg" xmlns:xlink="http://www.w3.org/1999/xlink" x="0px" y="0px"
	 viewBox="0 0 389.34 168.58" style="enable-background:new 0 0 389.34 168.58;" xml:space="preserve">
<style type="text/css">
	.st0{fill:#171B24;}
	.st1{opacity:0.5;}
	.st2{fill:#FFFFFF;}
</style>
<g id="Layer_3">
</g>
<path class="st0" d="M335.33,168.58H54.01c-29.7,0-54-24.3-54-54V54c0-29.7,24.3-54,54-54h281.33c29.7,0,54,24.3,54,54v60.58
	C389.33,144.28,365.02,168.58,335.33,168.58z"/>
<g class="st1">
	<g>
		<path class="st2" d="M97.5,102.12l1.13-6.43c3.33,3.04,7.5,5.18,11.67,5.18c4.34,0,7.02-2.68,7.02-6.25
			c0-2.74-1.55-5.12-5.83-6.55l-2.62-0.83c-7.68-2.5-10.24-7.14-10.24-12.26c0-6.55,5.18-11.55,12.56-11.55
			c3.51,0,7.38,1.13,10.95,3.21l-1.07,6.19c-3.51-2.38-6.84-3.69-10-3.69c-3.81,0-6.19,2.38-6.19,5.65c0,2.74,1.49,4.94,6.43,6.55
			l2.68,0.83c6.85,2.26,9.7,6.9,9.7,12.14c0,6.85-5,12.32-13.33,12.32C104.94,106.64,100.54,104.38,97.5,102.12z"/>
		<path class="st2" d="M155.24,70.21v35.66h-6.37V70.21h-11.55l1.01-6.01h27.38l1.01,6.01H155.24z"/>
		<path class="st2" d="M201.96,93.9H186.6l-5.12,11.96h-6.91l19.7-43.16l19.64,43.16h-6.84L201.96,93.9z M199.52,88.31l-5.24-12.26
			l-5.3,12.26H199.52z"/>
		<path class="st2" d="M239.7,70.21v35.66h-6.37V70.21h-11.55l1.01-6.01h27.38l1.01,6.01H239.7z"/>
		<path class="st2" d="M265.65,102.12l1.13-6.43c3.33,3.04,7.5,5.18,11.67,5.18c4.34,0,7.02-2.68,7.02-6.25
			c0-2.74-1.55-5.12-5.83-6.55l-2.62-0.83c-7.68-2.5-10.24-7.14-10.24-12.26c0-6.55,5.18-11.55,12.56-11.55
			c3.51,0,7.38,1.13,10.95,3.21l-1.07,6.19c-3.51-2.38-6.84-3.69-10-3.69c-3.81,0-6.19,2.38-6.19,5.65c0,2.74,1.49,4.94,6.43,6.55
			l2.68,0.83c6.85,2.26,9.7,6.9,9.7,12.14c0,6.85-5,12.32-13.33,12.32C273.09,106.64,268.69,104.38,265.65,102.12z"/>
	</g>
</g>
<g id="Layer_2_00000088101404589157399340000011429833785501191098_">
</g>
</svg>
